<?xml version="1.0" encoding="UTF-8"?><svg id="Layer_1" xmlns="http://www.w3.org/2000/svg" viewBox="0 0 646.49 645.3"><defs><style>.cls-1{fill:#efefef;}</style></defs><path class="cls-1" d="M299.16.76c273.1-17.98,446.33,288.38,285.48,511.28-146.27,202.71-460.32,167.81-558.52-61.56C-60.8,247.46,79.12,15.24,299.16.76ZM546.06,545.18c162.34-162.34,98.91-439.51-115.22-517.88C171.44-67.65-76.8,197.2,35.06,450.07c89.16,201.56,354.46,251.66,511.01,95.11Z"/><path class="cls-1" d="M484.79,282.95c1.55.44,2.64,3.26,2.12,4.96l-5.66,2.85,61.77,64.74,10.58,1.36-.54,5.72-4.28,1.39-454.32-.27-2.17-2.11-.09-4.74,10.58-1.36,61.76-63.33c1.3-3.38-4.77-1.5-5.65-4.26-.54-1.72.92-4.95,2.11-4.95h323.8ZM239.81,290.05h-52.55c-.62,2.48,1.02,2.84,2.12,4.27,2.32,3.03,22.29,22.76,24.15,22.76l26.27-27.03ZM313.66,290.05h-52.55l26.27,26.96,26.27-26.96ZM387.5,290.05h-52.55l26.27,26.96,26.27-26.96ZM459.93,290.05h-51.13c6.11,10.37,16.69,18.19,25.05,26.88,1.62.28,21.75-19.72,23.96-22.61,1.1-1.43,2.74-1.79,2.12-4.27ZM114.85,356.8c20.16-1.86,40.81-1.97,61.13-.78l31.07-32.4-31.85-32.12-60.34,65.3ZM250.46,291.5c-4.08,5.13-31.16,28.63-30.38,33.15l29.16,29.21,31.66-30.63-30.43-31.73ZM324.31,291.5l-30.43,31.73,30.43,30.7,30.43-31.73-30.43-30.7ZM398.16,291.5l-30.43,31.73,31.65,30.62,29.29-30.43-30.51-31.93ZM470.58,291.5l-30.51,31.92,32.58,32.77c18.54-.97,37.78-2.07,56.13.61l1.46-2.85-59.66-62.45ZM313.64,356.8c.64-2.44-.98-2.84-2.11-4.27-6.6-8.33-17.13-15.83-24.15-24.11l-26.24,26.25c-.1,4.66,19.91.7,23.33.65,9.7-.17,19.63.65,29.17,1.48ZM334.97,356.79c4.4-.83,8.89-1.36,13.4-1.45,11.11-.24,24.91,1.63,35.02,1.03,1.84-.11,2.61.72,4.09-1.7l-26.24-26.25c-6.88,8.25-17.75,15.82-24.15,24.11-1.1,1.43-2.75,1.81-2.11,4.27ZM238.38,356.8c.64-2.45-.98-2.84-2.11-4.27-6.17-7.84-16.15-14.9-22.73-22.69l-24.82,24.83c1.61,2.71,2.5,1.46,4.24,1.56,14.19.8,31-3.3,45.42.57ZM458.5,356.8c.64-2.44-.97-2.84-2.1-4.27-2.18-2.75-19.97-22.34-21.51-22.61l-26.07,24.77c-.6,3.15,1.42,2.03,3.56,2.15,4.9.27,9.27-1.37,14.12-1.53,10.75-.35,21.43.6,32.01,1.49Z"/><path class="cls-1" d="M525.37,146.72c1.07-.75,4.19-.05,5.55.63,3.54,1.77,22.95,30.84,26.18,36.31,38.26,64.66,48.07,143.36,27.09,215.74-1.55,5.34-5.06,18.21-7.49,22.33-2.16,3.66-4.65,4.74-8.22,1.86-.58-.6-.57-1.3-.59-2.08-.06-3.27,9.85-28.52,11.52-35.42,19.61-81.09-.34-169.54-54.55-232.82-1.2-1.29-.16-6.09.51-6.56Z"/><path class="cls-1" d="M69.74,423.18c-2.17-2.27-11.26-33.96-12.47-39.35-16.94-75.69-.85-158.19,45.05-220.62,2.66-3.62,13.18-19.24,17.44-18.01,1.94,1.28,2.42,2.56,2.2,4.87-.19,2-19.56,27.62-22.77,32.73-44.17,70.29-52.66,159.79-21.8,237.19-.51,4.42-4.5,6.47-7.64,3.19Z"/><path class="cls-1" d="M347.74,49.33c-.01-1.07,2.05-2.51.13-5.41-1.74-2.75-6.96-.71-5.8-5.24h17.03s-5.64,7.84-5.64,7.84l-2.14,47.56c-1.53,2.73-3.93-1.01-4.96-2.19-5.51-6.32-26.84-40.14-30.59-41.85-3.54-.48-1.53.93-1.65,2.7-.73,11.4-.18,23.18-.52,34.68.62,2.59,7.28.62,5.73,5.2l-15.63-.72c-.28-2.97,3.16-2.41,4.22-4.65,1.65-3.47,2.56-40.68,1.5-44.75-.52-1.99-5.31-1.52-4.28-5.25l12.16,1.31c9.7,11.48,17.55,26.9,27.18,38.06.88,1.01-.07,2.67,3.26,1.81-.07-9.69.1-19.41,0-29.11Z"/><path class="cls-1" d="M194.34,65.67l9.98,24.13c3.37-2.47,2.17-6.85,6.34-9.96,17.67-13.2,23.47,23.15,37.66,24.88l-17.03,7.81c-.63-2.85,2.73-3.75,2.8-6.35.11-4.03-12.1-21.64-16.35-22.09-8.56-.89-10.27,7.89-8.85,14.64.29,1.38,6.83,14.68,7.46,15.26,2.88,2.62,7.45-.53,6.41,4.21l-15.61,5.7c-.1-3.57,2.75-4.14,1.9-8.19-2.23-10.63-13.68-24.98-16.23-36.42l-8.4-2.26c.45-2.2,7.02-13.54,9.92-11.34Z"/><path class="cls-1" d="M481.23,81.3l-22.71,33.37,21.3-2.15-.7-5.68c3.31,1.27,16.5,7.74,13.47,11.37-3.68-1.15-17.18-3.06-19.25-.09l.1,31.33-13.5-8.53c-.99-4.48,3.64-2.99,4.33-3.6,3.14-2.79,2.81-14.75,2.78-19.11-10.52-1.3-18.32,2.71-14.21,14.2-1.58,1.41-16.32-7.96-14.19-9.92,3.05.28,4.78-.12,7.22-2.02,1.81-1.41,21.04-28.69,22.38-31.63,2.53-5.55-.12-3.74-1.19-8.95l14.19,1.43Z"/><path class="cls-1" d="M177.33,145.19c-.36-2.69,1.52-5.09,1.38-7.73-.3-5.51-21.81-28.84-25.52-35.7-5.74-.45-9.48,5.57-11,10.43-.57,1.82-1.44,16.23-4.97,8.48-1.13-2.49-3.74-13.52-2.35-15.1,13.42-4.41,25.2-16.25,36.04-25.37l13.48,8.9c-2.62,3.88-6.72.68-10.59.62-6.01-.11-12.42.77-14.38,7.27,5.39,4.84,22.92,34.14,27.41,35.21,2.7.65,5.23-2.89,7.51.93l-17.01,12.06Z"/><path class="cls-1" d="M419.78,77.36c33.62-7,35.74,43.21,3.97,40.89-25.23-1.84-24.48-36.62-3.97-40.89ZM422.6,81.59c-11.91,2.71-15.08,29.11-1.4,32.08,21.45,4.66,24.18-37.27,1.4-32.08Z"/><path class="cls-1" d="M377.2,61.74c31.89-5.03,33.25,44.97-.23,40.72-23.29-2.96-21.39-37.31.23-40.72ZM372.27,68.89c-12.12,12.41,1.04,38.6,15.78,27.85,15.65-11.42-1.42-42.55-15.78-27.85Z"/><path class="cls-1" d="M252.59,88.41c2.6,7.6,12.46,10.52,19.53,7.43,4.64-2.03,4.37-8.56,10.29-7.44-10.01,27.04-47.77,13.79-38.67-13.84,5.14-15.6,29.23-16.97,32.88.19l-24.03,13.66ZM268.04,75.44c3.04-5.21-10.75-13.13-16.69-4.64-3.3,4.71-2.32,9.48-1.59,14.74,2.65-.99,17.75-9.2,18.28-10.1Z"/><path class="cls-1" d="M540.87,447.69l-1.4,8.51c20.96-4.09,16.43,6.38,9.87,19.14-.87,1.7-1.22,3.68.77,3.55,3.64-.23,10.37-18.47,19.64-15.4,11.02,3.65-6.01,32.76-14.09,25.52-3.52-3.15.93-6.44-7.06-5.64-2.73-8.72-3.62-4.49-9.57-6.15-8.74-2.44-.99-15.79-1.29-18.66-.34-3.35-6.6-11.52,3.12-10.89ZM550.47,460.83c-6.9-6.64-17.4,5.5-10.43,11.14s15.13-6.61,10.43-11.14ZM565.97,469.21l-10.5,11.83,3.35,4.91c6.04,1.84,17.49-19.5,7.15-16.74Z"/><path class="cls-1" d="M344.89,564.15l1.4,33.41,4.29,6.33-8.51,2.88-.71-4.27c-28.12,18.69-29.8-35.96-.73-21.31-.26-2.8.68-6.5-.18-9.08-.9-2.69-5.38-1.11-4.06-5.1l8.51-2.86ZM330.31,581.4c-9.53,2.53-7.26,25.04,6.49,20.82,9.52-2.92,4.91-23.85-6.49-20.82Z"/><path class="cls-1" d="M293.77,119.64c-2.42,10.13.95,24.46,7.11,32.64l-9.94,1.43c1.67-5.19,2.34-11.1-2.07-15.29l-16.41,3.96c1.85,2.97,1.56,7.71,3.08,10.43,1.34,2.4,4.12,1.48,4.02,3.73l-9.92,2.86c2.06-9.94-2.01-24.02-7.11-32.65l9.94-1.42c-4.67,4.57-.87,8.7.06,14.16l16.99-2.82c-.91-4.71-.72-11.64-5.68-13.48l9.93-3.55Z"/><path class="cls-1" d="M542.32,498.81c.74-8.31-22.02-19.4-21.33-6.52.28,5.22,11.4,14.06,17.05,12.21.52.34-5.26,9.83-8.51,8.51.65-4.48-7.84-12.25-11.45-13.51-3.27-1.14-5.67,2.94-5.65-1.42.04-8.09,4.4-5.55,5.41-6.61.66-.69.62-5.89,3.09-8.66,6.55-7.35,17.27,4.92,22.92,6.8,3.1,1.03,4.84-1.9,6.94,1.38l-8.48,7.81Z"/><path class="cls-1" d="M300.52,577.28c19.41-1.21,21.1,28.35.85,28.97-18.76.57-19.68-27.79-.85-28.97ZM295.63,581.63c-8.31,6.16-.64,26.22,9.08,21.17,13.82-7.18.7-28.42-9.08-21.17Z"/><path class="cls-1" d="M107.33,474.97c16.67-3.78,26.83,18.59,11.12,26.74-19.45,10.09-31.41-22.14-11.12-26.74ZM110.18,479.22c-9.47,2.11-13.4,20.27-1.63,20.99,12.99.8,20.35-25.17,1.63-20.99Z"/><path class="cls-1" d="M444.72,570.83c2.21,1.9,4.19,1.51,6.68.41.12,8.07-8.65,4.18-10,4.95-.86.49-1.78,3.4-3.68,4.79-16.1,11.88-23-13.8-1.94-16.13-4.99-6.96-12.96-7.61-14.22,2.12-7.05.46.72-9.64,2.88-10.62,13.17-5.97,14.62,9.6,20.27,14.47ZM438.43,568.59c-1.94-1.25-9.2.5-10.5,2.62l1.34,7.25c6.86,5.55,13.98-6.78,9.16-9.88Z"/><path class="cls-1" d="M263.57,572.98c22.96-4.66,24.37,30.58,1.24,27.98-16.83-1.9-15.72-25.04-1.24-27.98ZM265.01,575.72c-10.61,2.02-9.09,24.75,3.85,22.5,11.18-1.94,9.49-25.03-3.85-22.5Z"/><path class="cls-1" d="M483.88,531.65c3.11,5.06-10.47,14.44-9.74,17.55,6.82,6.49,15.75,1.11,15.64-7.78,7.55,3.83-3.54,14.33-8.14,15.35-19.61,4.34-24.26-27.01-6.69-28.14,1.5-.1,8.6,2.47,8.94,3.02ZM472.29,533.08c-5.35,1.56-6.84,10.85-1.71,13.99l9.04-10.63c-1.73-2.68-4.07-4.31-7.33-3.36Z"/><path class="cls-1" d="M164.54,548.52c1.68,4.55-8.27,3.16-10.36,2.54-4.98-1.47-9.65-9.67-8.67-15.06,3.71-20.37,31.33-13.66,26.97,1.17-3.03,10.3-20.24-6.38-22.07.84s7.45,12.38,14.13,10.52ZM167.37,537.16c4.81-11.32-10.45-14.02-14.18-6.38-1.19,2.44,1.72,2.22,2.85,2.74,1.8.82,10.3,4.57,11.33,3.64Z"/><path class="cls-1" d="M175.91,552.79c-.03,4.82,2.13,10.74,7.06,12.21,3.55,1.06,7.04-2.11,8.55,1.96-15.83,5.56-29.1-11.7-14.99-24.21,9.48-8.41,22.82-.95,20.68,10.71-1.39,7.61-15.4-2.2-21.31-.68ZM178.74,549.92c4.65-.13,15.09,7.02,14.25-2.05-.72-7.7-15.82-6.89-14.25,2.05Z"/><path class="cls-1" d="M336.39,149.46l1.4,9.93-8.51-1.43c3.83-7.36,6.87-21.26,1.42-28.37,6.56-.49,17.01-3.13,22.04,1.37,7.83,7.01,1.38,21.38-8.6,21.19-3.06-.06-4.68-3.08-7.76-2.7ZM343.09,131.21c-7.46,2.04-8.47,19.34,2.47,18.28,8.85-.85,8.07-21.17-2.47-18.28Z"/><path class="cls-1" d="M255.43,569.84c1.35,5.98-6.16.51-7.09,1.4.55,5.41-5.34,13.65-5.42,18.03-.04,2.6,3.21,3.29,2.56,6.11l-11.35-2.85c-.81-3.84,2.61-2.53,4.59-6.01.77-1.36,5.48-15.02,5.43-15.86-.09-1.47-5.56-1.38-4.33-5.09l4.23,1.43,2.82-10.69c5.39-5.95,20.73,2.24,10.69,9.23l-4.28-8.49c-4.88-1.1-6.14,14.92,2.15,12.79Z"/><path class="cls-1" d="M153.04,500.08l-6.96,1.56,2.84-8.51c-5.18-2.68-8.74,3.02-9.71,7.6l5.42,7.35c3.94,2.64,5.41-8.06,11.87-7.52,7.9.66,12.69,12.7,2.38,12.44l1.41-8.5c-5.04-1.28-9.07,2.67-8.55,7.76.32,3.15,4.22,5.03,4.27,5.73.37,5.18-5.75-2.86-8.48-1.5-.73.36-10.4,11.47-10.75,12.23-1.33,2.9,2.18,5-1.34,7l-7.8-9.91c4.2,2.89,8.57-3.11,11.31-6.43,7.23-8.77,7.33-9.2-2.09-16.23-4.28,5.65-16.49,10.19-13.49,18.39l-9.93-7.81c8.08-1.3,13.54-8.08,19.27-13.49l-2.23-5.67,5.66,2.83c2.09-13.01,18.49-10.24,16.92,2.69Z"/><path class="cls-1" d="M371.88,121.06l-5.66,22.71c2.57-1.93,8.02-3.08,10.03-5,1.79-1.71-3.14-5.92,8.41-2.08-.4,3.81-9.54,3.8-9.94,4.26l7.1,18.44-9.35-2.75-.6-12.86c-6.93.53-8.98,5.26-5.67,11.35l-9.93-3.54c2.16-1.44,3.14-1.31,4.41-4.09,2.71-5.94,5.64-20.09,4.11-26.42h7.09Z"/><path class="cls-1" d="M245.09,148.46c1.97,1.66,5.05,8.99,7.42,11.42,1.96,2.01,5.33-.66,4.34,3.76l-8.51,2.85c4.95-6.88-12.61-22.81-14.28-12.02-.36,2.33,2.78,10.83,4.22,12.57,1.7,2.05,5.43-.86,4.37,3.7l-8.51,2.85c1.72-3.04-2.34-12.6-4.15-14.73-1.96-2.31-8.65,1.35-.81-7.97l3.52,2.82,3.19-6.16c2.97-1.25,6.64-1.25,9.21.91Z"/><path class="cls-1" d="M99.22,468.97c14.98-17.97-14.73-17.63-15.6-2-.43,7.69,6.12,7.69,9.92,11.94-28.26-2.08-9.88-39.48,9.27-24.16,6.66,5.33,7.87,17.4-3.58,14.21Z"/><path class="cls-1" d="M414.48,574.07c-4.43.96-2.73-4.41-6.68-5.49-13.22-3.62-10.66,20.26,1.81,21.1,5.99.4,6.72-4.22,10.54-7.08,1.83,6.36-6.67,11.44-12.06,11.44-15.4,0-19.47-25.34-2.98-28.75,7.2-1.49,10.61,1.21,9.36,8.78Z"/><path class="cls-1" d="M408.81,150.86c.53.29,9.38-2.81,11.19,2.34,2.67,7.57-7.05,15.88-2.67,23.22l-9.93-4.96c6.27.96,10.44-15.86,7.67-17.88-8.21-4.33-13.49,7.34-13.37,14.34l-8.5-2.86c-.09-2.52,3.68-1.59,5.33-3.18,1.74-1.69,7.66-13.37,3.18-15.25l7.23.65-.13,3.59Z"/><path class="cls-1" d="M445.71,537.16l4.97,8.25,9.25-3.98-8.52,5.69,10.82,18.27c5.82.35,4.35-4.88,7.63-6.93,1.35,6.51-5,13.83-11.34,10.7-3.71-1.83-9.17-17.18-10-17.79-1.52-1.11-5.31,3.14-7.02-.72,4.28-3.41,3.11-8.21,1.37-12.77l2.84-.72Z"/><path class="cls-1" d="M207.59,164.11c12.54-11.46,28.49,8.39,16.54,18.67-13.07,11.24-27.32-8.83-16.54-18.67ZM222.31,168.36c-13.86-15.05-24.79,15.76-.98,13.11,4.77-3.52,4.87-8.88.98-13.11Z"/><path class="cls-1" d="M502.53,515.85l-6.43-.06c-3.93,6.38,5.09,19.53,12.11,19.23l-8.5,7.82c1.1-5.24-5.15-13.3-9.16-15.71-6.38-3.82-8.6,2.42-3.61-9.85l5.65,4.25c-2.19-10.22,6.97-19.39,9.95-5.68Z"/><path class="cls-1" d="M324.56,147.59c-10.26,11.21-28.58-4.66-18.67-16.54,10.75-12.88,30.51,3.6,18.67,16.54ZM320.4,131.37c-10.63-9.98-17.93,11.27-8.17,15.95,11.48,5.51,14.49-10.01,8.17-15.95Z"/><path class="cls-1" d="M442.87,175.01c-3.1-1.04-2.95-7.63-5.66-9.23-1.78-1.06-3.76-.74-5.68-.69-1.71,6.54,5.64,8.37,6.83,13.8,3.3,15.16-17.17,4.57-18.22.81-.48-1.73-.32-10.97,2.85-7.52.79,6.92,3.18,13.11,11.37,11.36,3.31-3.18-16.04-19.13-3.46-21.3,6.64-1.15,14.95,5.86,11.97,12.78Z"/><path class="cls-1" d="M524.36,520.61c-1.41,1.67-2.2,3.83-4.07,5.15-2.82-1.79-.42-3.85-1.97-6.37-2.15-3.49-11.5-12.94-15.77-9.23l1.42-8.52c3.7-3.13,15.06,13.27,18.53,14.91,1.42.67,3.1-.59,4.18-.03,3.38,1.76-1.48,3.08-2.33,4.09Z"/><path class="cls-1" d="M396.02,140.94c-.03,8.31-7.91,14.43-4.26,22.71l-8.51-2.85c4.48-5.38,8.4-12.73,5.68-19.86h7.09Z"/><path class="cls-1" d="M219.74,565.76c6.24,10.2-14.37,10.2-8.14,0,.86-1.4,7.29-1.39,8.14,0Z"/><path class="cls-1" d="M369.38,590.76c-4.41-4.25,3.83-12.59,7.53-5.3,2.45,4.82-3.64,9.05-7.53,5.3Z"/></svg>